<svg width="103" height="40" viewBox="0 0 103 40" fill="none" xmlns="http://www.w3.org/2000/svg">
<path d="M98.037 34.7187V29.666H101.916V30.6689H98.9453L99.2197 30.404V34.7187H98.037Z" fill="white"/>
<path d="M91.5411 34.7187V29.666H92.7239V31.7192H95.2692V29.666H96.4519V34.7187H95.2692V32.7222H92.7239V34.7187H91.5411Z" fill="white"/>
<path d="M84.8973 34.7187V29.666H86.0801V32.9966L88.8714 29.666H89.95V34.7187H88.7673V31.388L85.9855 34.7187H84.8973Z" fill="white"/>
<path d="M81.0875 34.7187V30.3851L81.3618 30.6689H79.3086V29.666H84.0396V30.6689H81.9958L82.2702 30.3851V34.7187H81.0875Z" fill="white"/>
<path d="M73.1265 34.7092L73.1832 33.7157C73.2274 33.722 73.2684 33.7283 73.3062 33.7346C73.3441 33.7409 73.3788 33.7441 73.4103 33.7441C73.6059 33.7441 73.7573 33.6842 73.8645 33.5643C73.9717 33.4444 74.0506 33.2836 74.1011 33.0817C74.1578 32.8736 74.1957 32.6433 74.2146 32.391C74.2398 32.1324 74.2588 31.8738 74.2714 31.6151L74.3565 29.666H78.4441V34.7187H77.2614V30.3472L77.5358 30.6689H75.1324L75.3879 30.3378L75.3216 31.6719C75.3027 32.1198 75.2649 32.5361 75.2081 32.9209C75.1576 33.2994 75.0756 33.6305 74.9621 33.9144C74.8549 34.1983 74.7035 34.419 74.5079 34.5767C74.3187 34.7344 74.0758 34.8133 73.7793 34.8133C73.6847 34.8133 73.5806 34.8038 73.4671 34.7849C73.3599 34.766 73.2463 34.7407 73.1265 34.7092Z" fill="white"/>
<path d="M71.2844 34.7187V33.6968L71.2182 33.4792V31.6908C71.2182 31.3439 71.1141 31.0758 70.906 30.8866C70.6978 30.691 70.3824 30.5932 69.9598 30.5932C69.6759 30.5932 69.3952 30.6374 69.1176 30.7257C68.8464 30.814 68.6162 30.937 68.4269 31.0947L67.9633 30.2337C68.2345 30.0255 68.5562 29.871 68.9284 29.77C69.3069 29.6628 69.698 29.6092 70.1017 29.6092C70.8334 29.6092 71.398 29.7858 71.7954 30.1391C72.1991 30.486 72.401 31.0253 72.401 31.7571V34.7187H71.2844ZM69.6948 34.7849C69.3163 34.7849 68.9852 34.7218 68.7013 34.5957C68.4175 34.4632 68.1967 34.2834 68.039 34.0563C67.8876 33.8229 67.8119 33.5612 67.8119 33.271C67.8119 32.9871 67.8781 32.7317 68.0106 32.5046C68.1494 32.2775 68.3733 32.0977 68.6824 31.9652C68.9915 31.8328 69.4015 31.7665 69.9125 31.7665H71.3791V32.5519H69.9976C69.5939 32.5519 69.3227 32.6181 69.1839 32.7506C69.0451 32.8767 68.9757 33.0344 68.9757 33.2237C68.9757 33.4381 69.0609 33.6085 69.2312 33.7346C69.4015 33.8608 69.6381 33.9239 69.9408 33.9239C70.231 33.9239 70.4896 33.8576 70.7167 33.7252C70.9501 33.5927 71.1173 33.3971 71.2182 33.1385L71.4169 33.8482C71.3034 34.1446 71.0984 34.3749 70.8019 34.5389C70.5117 34.7029 70.1427 34.7849 69.6948 34.7849Z" fill="white"/>
<path d="M65.02 34.7849C64.4902 34.7849 64.0171 34.6745 63.6007 34.4537C63.1907 34.2266 62.869 33.9176 62.6356 33.5265C62.4022 33.1354 62.2855 32.6907 62.2855 32.1923C62.2855 31.6877 62.4022 31.243 62.6356 30.8582C62.869 30.4671 63.1907 30.1611 63.6007 29.9404C64.0171 29.7196 64.4902 29.6092 65.02 29.6092C65.5121 29.6092 65.9442 29.7101 66.3163 29.912C66.6948 30.1075 66.9818 30.3977 67.1774 30.7825L66.269 31.3124C66.1176 31.0726 65.9315 30.896 65.7108 30.7825C65.4963 30.6689 65.2629 30.6122 65.0106 30.6122C64.7204 30.6122 64.4586 30.6752 64.2252 30.8014C63.9918 30.9276 63.8089 31.1105 63.6764 31.3502C63.544 31.5836 63.4777 31.8643 63.4777 32.1923C63.4777 32.5203 63.544 32.8042 63.6764 33.0439C63.8089 33.2773 63.9918 33.4571 64.2252 33.5832C64.4586 33.7094 64.7204 33.7725 65.0106 33.7725C65.2629 33.7725 65.4963 33.7157 65.7108 33.6022C65.9315 33.4886 66.1176 33.312 66.269 33.0723L67.1774 33.6022C66.9818 33.9806 66.6948 34.274 66.3163 34.4821C65.9442 34.684 65.5121 34.7849 65.02 34.7849Z" fill="white"/>
<path d="M56.225 34.7187V29.666H57.4077V31.7192H59.953V29.666H61.1358V34.7187H59.953V32.7222H57.4077V34.7187H56.225Z" fill="white"/>
<path d="M52.3599 34.7849C51.8427 34.7849 51.3822 34.6745 50.9785 34.4537C50.5748 34.2266 50.2562 33.9176 50.0228 33.5265C49.7894 33.1354 49.6727 32.6907 49.6727 32.1923C49.6727 31.6877 49.7894 31.243 50.0228 30.8582C50.2562 30.4671 50.5748 30.1611 50.9785 29.9404C51.3822 29.7196 51.8427 29.6092 52.3599 29.6092C52.8835 29.6092 53.3471 29.7196 53.7509 29.9404C54.1609 30.1611 54.4794 30.4639 54.7065 30.8487C54.9399 31.2335 55.0566 31.6814 55.0566 32.1923C55.0566 32.6907 54.9399 33.1354 54.7065 33.5265C54.4794 33.9176 54.1609 34.2266 53.7509 34.4537C53.3471 34.6745 52.8835 34.7849 52.3599 34.7849ZM52.3599 33.7725C52.6501 33.7725 52.9087 33.7094 53.1358 33.5832C53.3629 33.4571 53.5395 33.2741 53.6657 33.0344C53.7982 32.7947 53.8644 32.514 53.8644 32.1923C53.8644 31.8643 53.7982 31.5836 53.6657 31.3502C53.5395 31.1105 53.3629 30.9276 53.1358 30.8014C52.9087 30.6752 52.6533 30.6122 52.3694 30.6122C52.0792 30.6122 51.8206 30.6752 51.5935 30.8014C51.3727 30.9276 51.1961 31.1105 51.0636 31.3502C50.9312 31.5836 50.8649 31.8643 50.8649 32.1923C50.8649 32.514 50.9312 32.7947 51.0636 33.0344C51.1961 33.2741 51.3727 33.4571 51.5935 33.5832C51.8206 33.7094 52.0761 33.7725 52.3599 33.7725Z" fill="white"/>
<path d="M48.049 34.7187L46.2228 32.2964L47.188 31.7003L49.4399 34.7187H48.049ZM44.425 34.7187V29.666H45.6078V34.7187H44.425ZM45.2577 32.6938V31.7097H46.9703V32.6938H45.2577ZM47.3015 32.3342L46.1944 32.2018L48.049 29.666H49.3169L47.3015 32.3342Z" fill="white"/>
<path d="M97.7136 23.154V18.1013H98.8964V21.432L101.688 18.1013H102.766V23.154H101.584V19.8234L98.8018 23.154H97.7136ZM100.164 17.5052C99.6596 17.5052 99.2717 17.3885 99.0005 17.1551C98.7292 16.9154 98.5904 16.5685 98.5841 16.1143H99.3695C99.3758 16.3414 99.4452 16.5212 99.5776 16.6537C99.7164 16.7861 99.9088 16.8524 100.155 16.8524C100.395 16.8524 100.584 16.7861 100.723 16.6537C100.868 16.5212 100.943 16.3414 100.95 16.1143H101.754C101.748 16.5685 101.606 16.9154 101.328 17.1551C101.057 17.3885 100.669 17.5052 100.164 17.5052Z" fill="white"/>
<path d="M91.0699 23.154V18.1013H92.2527V21.4319L95.044 18.1013H96.1227V23.154H94.9399V19.8233L92.1581 23.154H91.0699Z" fill="white"/>
<path d="M85.2115 23.154V18.1013H87.6811C88.293 18.1013 88.7724 18.2148 89.1194 18.4419C89.4726 18.669 89.6492 18.9907 89.6492 19.407C89.6492 19.817 89.4852 20.1387 89.1572 20.3721C88.8292 20.5992 88.3939 20.7128 87.8514 20.7128L87.9934 20.4194C88.6053 20.4194 89.0594 20.533 89.3559 20.7601C89.6587 20.9809 89.8101 21.3057 89.8101 21.7347C89.8101 22.1825 89.6429 22.5326 89.3086 22.785C88.9743 23.031 88.4665 23.154 87.7852 23.154H85.2115ZM86.3375 22.2929H87.6906C88.0123 22.2929 88.2552 22.2425 88.4192 22.1415C88.5832 22.0343 88.6652 21.8734 88.6652 21.659C88.6652 21.4319 88.5895 21.2647 88.4381 21.1575C88.2867 21.0502 88.0502 20.9966 87.7284 20.9966H86.3375V22.2929ZM86.3375 20.2113H87.577C87.8798 20.2113 88.1069 20.1577 88.2583 20.0504C88.416 19.9369 88.4949 19.7792 88.4949 19.5773C88.4949 19.3692 88.416 19.2146 88.2583 19.1137C88.1069 19.0128 87.8798 18.9623 87.577 18.9623H86.3375V20.2113Z" fill="white"/>
<path d="M81.3465 23.2202C80.8293 23.2202 80.3688 23.1098 79.9651 22.889C79.5613 22.662 79.2428 22.3529 79.0094 21.9618C78.776 21.5707 78.6593 21.126 78.6593 20.6276C78.6593 20.123 78.776 19.6783 79.0094 19.2935C79.2428 18.9024 79.5613 18.5964 79.9651 18.3757C80.3688 18.1549 80.8293 18.0445 81.3465 18.0445C81.8701 18.0445 82.3337 18.1549 82.7374 18.3757C83.1474 18.5964 83.466 18.8992 83.6931 19.284C83.9265 19.6688 84.0432 20.1167 84.0432 20.6276C84.0432 21.126 83.9265 21.5707 83.6931 21.9618C83.466 22.3529 83.1474 22.662 82.7374 22.889C82.3337 23.1098 81.8701 23.2202 81.3465 23.2202ZM81.3465 22.2078C81.6367 22.2078 81.8953 22.1447 82.1224 22.0185C82.3495 21.8924 82.5261 21.7094 82.6523 21.4697C82.7847 21.23 82.851 20.9493 82.851 20.6276C82.851 20.2996 82.7847 20.0189 82.6523 19.7855C82.5261 19.5458 82.3495 19.3629 82.1224 19.2367C81.8953 19.1105 81.6398 19.0475 81.356 19.0475C81.0658 19.0475 80.8072 19.1105 80.5801 19.2367C80.3593 19.3629 80.1827 19.5458 80.0502 19.7855C79.9178 20.0189 79.8515 20.2996 79.8515 20.6276C79.8515 20.9493 79.9178 21.23 80.0502 21.4697C80.1827 21.7094 80.3593 21.8924 80.5801 22.0185C80.8072 22.1447 81.0627 22.2078 81.3465 22.2078Z" fill="white"/>
<path d="M75.9697 23.2202C75.4399 23.2202 74.9668 23.1098 74.5504 22.889C74.1404 22.662 73.8187 22.3529 73.5853 21.9618C73.3519 21.5707 73.2352 21.126 73.2352 20.6276C73.2352 20.123 73.3519 19.6783 73.5853 19.2935C73.8187 18.9024 74.1404 18.5964 74.5504 18.3757C74.9668 18.1549 75.4399 18.0445 75.9697 18.0445C76.4618 18.0445 76.8939 18.1454 77.266 18.3473C77.6445 18.5428 77.9315 18.833 78.1271 19.2178L77.2187 19.7477C77.0673 19.508 76.8813 19.3313 76.6605 19.2178C76.446 19.1042 76.2126 19.0475 75.9603 19.0475C75.6701 19.0475 75.4083 19.1105 75.1749 19.2367C74.9415 19.3629 74.7586 19.5458 74.6261 19.7855C74.4937 20.0189 74.4274 20.2996 74.4274 20.6276C74.4274 20.9556 74.4937 21.2395 74.6261 21.4792C74.7586 21.7126 74.9415 21.8924 75.1749 22.0185C75.4083 22.1447 75.6701 22.2078 75.9603 22.2078C76.2126 22.2078 76.446 22.151 76.6605 22.0375C76.8813 21.9239 77.0673 21.7473 77.2187 21.5076L78.1271 22.0375C77.9315 22.4159 77.6445 22.7093 77.266 22.9174C76.8939 23.1193 76.4618 23.2202 75.9697 23.2202Z" fill="white"/>
<path d="M67.1746 23.154V18.1013H68.3573V20.1545H70.9026V18.1013H72.0853V23.154H70.9026V21.1575H68.3573V23.154H67.1746Z" fill="white"/>
<path d="M64.5945 23.154V22.1321L64.5283 21.9145V20.1261C64.5283 19.7792 64.4242 19.5111 64.216 19.3219C64.0079 19.1263 63.6925 19.0285 63.2698 19.0285C62.986 19.0285 62.7053 19.0727 62.4277 19.161C62.1565 19.2493 61.9262 19.3723 61.737 19.53L61.2733 18.669C61.5446 18.4608 61.8663 18.3063 62.2385 18.2053C62.6169 18.0981 63.008 18.0445 63.4118 18.0445C64.1435 18.0445 64.708 18.2211 65.1055 18.5744C65.5092 18.9213 65.711 19.4606 65.711 20.1924V23.154H64.5945ZM63.0049 23.2202C62.6264 23.2202 62.2952 23.1571 62.0114 23.031C61.7275 22.8985 61.5067 22.7187 61.349 22.4916C61.1976 22.2582 61.1219 21.9965 61.1219 21.7063C61.1219 21.4224 61.1882 21.167 61.3207 20.9399C61.4594 20.7128 61.6834 20.533 61.9925 20.4005C62.3015 20.2681 62.7116 20.2018 63.2225 20.2018H64.6891V20.9872H63.3077C62.904 20.9872 62.6327 21.0534 62.4939 21.1859C62.3552 21.312 62.2858 21.4697 62.2858 21.659C62.2858 21.8735 62.3709 22.0438 62.5412 22.1699C62.7116 22.2961 62.9481 22.3592 63.2509 22.3592C63.5411 22.3592 63.7997 22.2929 64.0268 22.1605C64.2602 22.028 64.4273 21.8325 64.5283 21.5738L64.727 22.2835C64.6134 22.58 64.4084 22.8102 64.1119 22.9742C63.8218 23.1382 63.4528 23.2202 63.0049 23.2202Z" fill="white"/>
<path d="M55.033 23.154V18.1013H56.2157V20.1545H58.761V18.1013H59.9437V23.154H58.761V21.1575H56.2157V23.154H55.033Z" fill="white"/>
<path d="M52.2516 23.154V18.1013H53.4343V23.154H52.2516ZM52.8477 17.2686C52.6269 17.2686 52.4439 17.1992 52.2989 17.0604C52.1601 16.9217 52.0907 16.7545 52.0907 16.559C52.0907 16.3571 52.1601 16.1899 52.2989 16.0575C52.4439 15.9187 52.6269 15.8493 52.8477 15.8493C53.0684 15.8493 53.2482 15.9155 53.387 16.048C53.5321 16.1742 53.6046 16.335 53.6046 16.5306C53.6046 16.7387 53.5352 16.9154 53.3965 17.0604C53.2577 17.1992 53.0747 17.2686 52.8477 17.2686Z" fill="white"/>
<path d="M47.6328 23.2487C47.6265 23.2487 47.5981 23.2487 47.5476 23.2487C47.5035 23.2487 47.4593 23.2487 47.4152 23.2487C47.3773 23.2487 47.3521 23.2487 47.3395 23.2487C46.2734 23.2361 45.4471 23.0058 44.8604 22.5579C44.2738 22.1038 43.9805 21.4572 43.9805 20.6182C43.9805 19.7856 44.2738 19.1485 44.8604 18.7069C45.4471 18.2653 46.2829 18.0383 47.3679 18.0256C47.3805 18.0256 47.4057 18.0256 47.4436 18.0256C47.4877 18.0256 47.5287 18.0256 47.5666 18.0256C47.6107 18.0256 47.636 18.0256 47.6423 18.0256C48.7335 18.0256 49.582 18.2496 50.1875 18.6974C50.7994 19.139 51.1054 19.7793 51.1054 20.6182C51.1054 21.4635 50.7994 22.1132 50.1875 22.5674C49.582 23.0216 48.7304 23.2487 47.6328 23.2487ZM47.595 22.2646C48.1311 22.2646 48.5727 22.2047 48.9196 22.0848C49.2666 21.9587 49.5252 21.7757 49.6955 21.536C49.8658 21.29 49.951 20.9841 49.951 20.6182C49.951 20.2587 49.8658 19.9622 49.6955 19.7288C49.5252 19.4891 49.2666 19.3125 48.9196 19.1989C48.5727 19.0791 48.1311 19.0192 47.595 19.0192C47.5823 19.0192 47.5508 19.0192 47.5003 19.0192C47.4562 19.0192 47.4278 19.0192 47.4152 19.0192C46.8916 19.0192 46.4627 19.0822 46.1283 19.2084C45.794 19.3282 45.5449 19.5049 45.3808 19.7383C45.2231 19.9717 45.1443 20.265 45.1443 20.6182C45.1443 20.9778 45.2231 21.2774 45.3808 21.5171C45.5449 21.7568 45.794 21.9398 46.1283 22.0659C46.469 22.1921 46.8979 22.2583 47.4152 22.2646C47.4278 22.2646 47.4562 22.2646 47.5003 22.2646C47.5508 22.2646 47.5823 22.2646 47.595 22.2646ZM46.9799 24.9897V16.1332H48.0964V24.9897H46.9799Z" fill="white"/>
<path d="M93.4539 11.5893V6.53658H94.6366V9.86721L97.4279 6.53658H98.5066V11.5893H97.3238V8.25867L94.542 11.5893H93.4539ZM95.9045 5.94047C95.3999 5.94047 95.0119 5.82378 94.7407 5.59038C94.4694 5.35068 94.3307 5.00374 94.3244 4.54956H95.1097C95.116 4.77665 95.1854 4.95643 95.3179 5.08889C95.4566 5.22136 95.649 5.2876 95.8951 5.2876C96.1348 5.2876 96.324 5.22136 96.4628 5.08889C96.6079 4.95643 96.6836 4.77665 96.6899 4.54956H97.4941C97.4878 5.00374 97.3459 5.35068 97.0683 5.59038C96.7971 5.82378 96.4092 5.94047 95.9045 5.94047Z" fill="white"/>
<path d="M86.8101 11.5893V6.53662H87.9928V9.86725L90.7841 6.53662H91.8628V11.5893H90.68V8.25871L87.8982 11.5893H86.8101Z" fill="white"/>
<path d="M80.3142 11.5893V6.53662H81.497V8.58988H84.0422V6.53662H85.225V11.5893H84.0422V9.59285H81.497V11.5893H80.3142Z" fill="white"/>
<path d="M72.6912 11.5893V6.53662H73.9307L75.965 10.1227H75.473L77.6114 6.53662H78.7185L78.7279 11.5893H77.6587V7.80453L77.848 7.92754L75.9556 11.0595H75.4446L73.5427 7.84238L73.7698 7.78561V11.5893H72.6912Z" fill="white"/>
<path d="M69.0225 11.6556C68.4611 11.6556 67.9691 11.5452 67.5464 11.3244C67.1301 11.0973 66.8052 10.7882 66.5718 10.3971C66.3447 10.006 66.2312 9.56132 66.2312 9.06299C66.2312 8.55835 66.3416 8.11363 66.5624 7.72884C66.7895 7.33775 67.0986 7.03181 67.4896 6.81103C67.8871 6.59025 68.3381 6.47986 68.8427 6.47986C69.3347 6.47986 69.7731 6.58709 70.1579 6.80157C70.5427 7.01604 70.8455 7.31882 71.0663 7.70992C71.2871 8.10102 71.3975 8.5615 71.3975 9.09137C71.3975 9.14184 71.3943 9.19861 71.388 9.26169C71.388 9.32477 71.3848 9.38469 71.3785 9.44147H67.1679V8.65612H70.754L70.2904 8.90213C70.2967 8.61196 70.2368 8.35649 70.1106 8.13571C69.9845 7.91493 69.811 7.74146 69.5902 7.6153C69.3757 7.48914 69.1266 7.42606 68.8427 7.42606C68.5525 7.42606 68.2971 7.48914 68.0763 7.6153C67.8618 7.74146 67.6915 7.91808 67.5653 8.14517C67.4455 8.36595 67.3856 8.62773 67.3856 8.93052V9.11976C67.3856 9.42254 67.455 9.69063 67.5937 9.92403C67.7325 10.1574 67.9281 10.3372 68.1804 10.4634C68.4327 10.5895 68.7229 10.6526 69.0509 10.6526C69.3347 10.6526 69.5902 10.6084 69.8173 10.5201C70.0444 10.4318 70.2462 10.293 70.4229 10.1038L71.0568 10.8324C70.8297 11.0973 70.5427 11.3023 70.1958 11.4474C69.8551 11.5862 69.4641 11.6556 69.0225 11.6556Z" fill="white"/>
<path d="M63.0781 11.5893V7.25573L63.3525 7.53959H61.2992V6.53662H66.0302V7.53959H63.9864L64.2608 7.25573V11.5893H63.0781Z" fill="white"/>
<path d="M58.8662 11.6556C58.3364 11.6556 57.8633 11.5452 57.4469 11.3244C57.0369 11.0973 56.7152 10.7882 56.4818 10.3971C56.2484 10.006 56.1317 9.56132 56.1317 9.06299C56.1317 8.55835 56.2484 8.11363 56.4818 7.72884C56.7152 7.33775 57.0369 7.03181 57.4469 6.81103C57.8633 6.59025 58.3364 6.47986 58.8662 6.47986C59.3583 6.47986 59.7904 6.58079 60.1625 6.78264C60.541 6.97819 60.828 7.26836 61.0236 7.65315L60.1152 8.18302C59.9638 7.94331 59.7777 7.76669 59.557 7.65315C59.3425 7.5396 59.1091 7.48283 58.8568 7.48283C58.5666 7.48283 58.3048 7.54591 58.0714 7.67207C57.838 7.79823 57.6551 7.98116 57.5226 8.22087C57.3902 8.45426 57.3239 8.73497 57.3239 9.06299C57.3239 9.391 57.3902 9.67486 57.5226 9.91457C57.6551 10.148 57.838 10.3277 58.0714 10.4539C58.3048 10.5801 58.5666 10.6431 58.8568 10.6431C59.1091 10.6431 59.3425 10.5864 59.557 10.4728C59.7777 10.3593 59.9638 10.1827 60.1152 9.94295L61.0236 10.4728C60.828 10.8513 60.541 11.1446 60.1625 11.3528C59.7904 11.5546 59.3583 11.6556 58.8662 11.6556Z" fill="white"/>
<path d="M49.9231 11.5893V6.53662H51.1058V9.86725L53.8971 6.53662H54.9758V11.5893H53.7931V8.25871L51.0112 11.5893H49.9231Z" fill="white"/>
<path d="M46.7244 11.6556C46.1945 11.6556 45.7214 11.5452 45.3051 11.3244C44.8951 11.0973 44.5734 10.7882 44.34 10.3971C44.1066 10.006 43.9899 9.56132 43.9899 9.06299C43.9899 8.55835 44.1066 8.11363 44.34 7.72884C44.5734 7.33775 44.8951 7.03181 45.3051 6.81103C45.7214 6.59025 46.1945 6.47986 46.7244 6.47986C47.2164 6.47986 47.6485 6.58079 48.0207 6.78264C48.3992 6.97819 48.6862 7.26836 48.8817 7.65315L47.9734 8.18302C47.822 7.94331 47.6359 7.76669 47.4151 7.65315C47.2006 7.5396 46.9672 7.48283 46.7149 7.48283C46.4248 7.48283 46.163 7.54591 45.9296 7.67207C45.6962 7.79823 45.5133 7.98116 45.3808 8.22087C45.2483 8.45426 45.1821 8.73497 45.1821 9.06299C45.1821 9.391 45.2483 9.67486 45.3808 9.91457C45.5133 10.148 45.6962 10.3277 45.9296 10.4539C46.163 10.5801 46.4248 10.6431 46.7149 10.6431C46.9672 10.6431 47.2006 10.5864 47.4151 10.4728C47.6359 10.3593 47.822 10.1827 47.9734 9.94295L48.8817 10.4728C48.6862 10.8513 48.3992 11.1446 48.0207 11.3528C47.6485 11.5546 47.2164 11.6556 46.7244 11.6556Z" fill="white"/>
<path d="M8.48952 28.2124L16.1051 20.6442L21.099 25.638L31.2115 15.538V21.2485H33.7084V11.2608H23.7207V13.7577H29.4287L21.099 22.0899L16.1051 17.0961L6.77164 26.492L8.48952 28.2124ZM4.03502 39.9753C2.88477 39.9753 1.92512 39.5908 1.15607 38.8218C0.387022 38.0527 0.00166461 37.0922 0 35.9403V4.05968C0 2.90943 0.385357 1.94978 1.15607 1.18073C1.92679 0.41168 2.88644 0.0263228 4.03502 0.0246582H35.9182C37.0667 0.0246582 38.0264 0.410015 38.7971 1.18073C39.5678 1.95145 39.9523 2.9111 39.9507 4.05968V35.9428C39.9507 37.0914 39.5662 38.051 38.7971 38.8218C38.0281 39.5925 37.0676 39.977 35.9157 39.9753H4.03502Z" fill="white"/>
</svg>
