<svg width="107" height="36" viewBox="0 0 107 36" fill="none" xmlns="http://www.w3.org/2000/svg">
<path d="M101.419 35.7444V29.782H105.997V30.9656H102.491L102.815 30.6529V35.7444H101.419Z" fill="white"/>
<path d="M93.7539 35.7444V29.782H95.1496V32.2049H98.1531V29.782H99.5488V35.7444H98.1531V33.3885H95.1496V35.7444H93.7539Z" fill="white"/>
<path d="M85.9142 35.7444V29.782H87.3099V33.7123L90.6037 29.782H91.8765V35.7444H90.4808V31.8141L87.1982 35.7444H85.9142Z" fill="white"/>
<path d="M81.4182 35.7444V30.6306L81.742 30.9656H79.3191V29.782H84.9018V30.9656H82.4901L82.8139 30.6306V35.7444H81.4182Z" fill="white"/>
<path d="M72.0242 35.7332L72.0912 34.5608C72.1433 34.5683 72.1917 34.5757 72.2363 34.5832C72.281 34.5906 72.3219 34.5943 72.3591 34.5943C72.5899 34.5943 72.7685 34.5236 72.8951 34.3822C73.0216 34.2408 73.1147 34.051 73.1742 33.8128C73.2412 33.5671 73.2859 33.2954 73.3082 32.9977C73.338 32.6925 73.3603 32.3873 73.3752 32.0821L73.4757 29.782H78.2991V35.7444H76.9035V30.586L77.2273 30.9656H74.3912L74.6927 30.5748L74.6145 32.1491C74.5922 32.6776 74.5476 33.1689 74.4806 33.6229C74.421 34.0696 74.3242 34.4604 74.1903 34.7953C74.0637 35.1303 73.8851 35.3908 73.6543 35.5769C73.431 35.763 73.1444 35.856 72.7946 35.856C72.6829 35.856 72.5601 35.8449 72.4261 35.8225C72.2996 35.8002 72.1656 35.7704 72.0242 35.7332Z" fill="white"/>
<path d="M69.8506 35.7443V34.5384L69.7725 34.2816V32.1714C69.7725 31.762 69.6497 31.4456 69.404 31.2223C69.1584 30.9915 68.7862 30.8762 68.2875 30.8762C67.9525 30.8762 67.6213 30.9283 67.2938 31.0325C66.9737 31.1367 66.702 31.2818 66.4787 31.4679L65.9316 30.4519C66.2517 30.2062 66.6313 30.0239 67.0704 29.9048C67.5171 29.7782 67.9786 29.715 68.455 29.715C69.3184 29.715 69.9846 29.9234 70.4536 30.3402C70.93 30.7496 71.1682 31.3861 71.1682 32.2495V35.7443H69.8506ZM67.9748 35.8224C67.5282 35.8224 67.1374 35.748 66.8025 35.5991C66.4675 35.4428 66.207 35.2307 66.0209 34.9627C65.8423 34.6873 65.7529 34.3784 65.7529 34.036C65.7529 33.701 65.8311 33.3996 65.9874 33.1316C66.1512 32.8636 66.4154 32.6515 66.7801 32.4952C67.1449 32.3388 67.6287 32.2607 68.2317 32.2607H69.9623V33.1874H68.3321C67.8557 33.1874 67.5357 33.2656 67.3719 33.4219C67.2082 33.5708 67.1263 33.7568 67.1263 33.9802C67.1263 34.2332 67.2268 34.4342 67.4277 34.5831C67.6287 34.732 67.9079 34.8064 68.2651 34.8064C68.6076 34.8064 68.9127 34.7282 69.1807 34.5719C69.4561 34.4156 69.6534 34.1849 69.7725 33.8797L70.007 34.7171C69.873 35.0669 69.631 35.3386 69.2812 35.5321C68.9388 35.7257 68.5033 35.8224 67.9748 35.8224Z" fill="white"/>
<path d="M62.4586 35.8224C61.8334 35.8224 61.2751 35.6922 60.7838 35.4317C60.3 35.1637 59.9203 34.7989 59.6449 34.3374C59.3695 33.8759 59.2318 33.3512 59.2318 32.7631C59.2318 32.1676 59.3695 31.6429 59.6449 31.1888C59.9203 30.7273 60.3 30.3663 60.7838 30.1058C61.2751 29.8452 61.8334 29.715 62.4586 29.715C63.0392 29.715 63.5491 29.8341 63.9883 30.0723C64.4349 30.303 64.7736 30.6454 65.0043 31.0995L63.9324 31.7247C63.7538 31.4419 63.5342 31.2335 63.2737 31.0995C63.0206 30.9655 62.7452 30.8985 62.4474 30.8985C62.105 30.8985 61.7961 30.9729 61.5207 31.1218C61.2453 31.2707 61.0294 31.4865 60.8731 31.7694C60.7168 32.0448 60.6387 32.3761 60.6387 32.7631C60.6387 33.1502 60.7168 33.4852 60.8731 33.768C61.0294 34.0434 61.2453 34.2556 61.5207 34.4044C61.7961 34.5533 62.105 34.6277 62.4474 34.6277C62.7452 34.6277 63.0206 34.5608 63.2737 34.4268C63.5342 34.2928 63.7538 34.0844 63.9324 33.8015L65.0043 34.4268C64.7736 34.8734 64.4349 35.2195 63.9883 35.4652C63.5491 35.7033 63.0392 35.8224 62.4586 35.8224Z" fill="white"/>
<path d="M52.08 35.7444V29.782H53.4756V32.2049H56.4791V29.782H57.8748V35.7444H56.4791V33.3885H53.4756V35.7444H52.08Z" fill="white"/>
<path d="M47.5191 35.8224C46.9087 35.8224 46.3654 35.6922 45.889 35.4317C45.4126 35.1637 45.0367 34.7989 44.7613 34.3374C44.4859 33.8759 44.3481 33.3512 44.3481 32.7631C44.3481 32.1676 44.4859 31.6429 44.7613 31.1888C45.0367 30.7273 45.4126 30.3663 45.889 30.1058C46.3654 29.8452 46.9087 29.715 47.5191 29.715C48.1369 29.715 48.684 29.8452 49.1604 30.1058C49.6443 30.3663 50.0202 30.7236 50.2881 31.1776C50.5636 31.6317 50.7013 32.1602 50.7013 32.7631C50.7013 33.3512 50.5636 33.8759 50.2881 34.3374C50.0202 34.7989 49.6443 35.1637 49.1604 35.4317C48.684 35.6922 48.1369 35.8224 47.5191 35.8224ZM47.5191 34.6277C47.8615 34.6277 48.1667 34.5533 48.4347 34.4044C48.7027 34.2556 48.9111 34.0397 49.0599 33.7568C49.2163 33.474 49.2944 33.1427 49.2944 32.7631C49.2944 32.3761 49.2163 32.0448 49.0599 31.7694C48.9111 31.4865 48.7027 31.2707 48.4347 31.1218C48.1667 30.9729 47.8652 30.8985 47.5303 30.8985C47.1879 30.8985 46.8827 30.9729 46.6147 31.1218C46.3542 31.2707 46.1458 31.4865 45.9895 31.7694C45.8331 32.0448 45.755 32.3761 45.755 32.7631C45.755 33.1427 45.8331 33.474 45.9895 33.7568C46.1458 34.0397 46.3542 34.2556 46.6147 34.4044C46.8827 34.5533 47.1842 34.6277 47.5191 34.6277Z" fill="white"/>
<path d="M42.4322 35.7444L40.2773 32.886L41.4162 32.1826L44.0736 35.7444H42.4322ZM38.1559 35.7444V29.782H39.5516V35.7444H38.1559ZM39.1384 33.355V32.1938H41.1594V33.355H39.1384ZM41.5502 32.9307L40.2438 32.7744L42.4322 29.782H43.9284L41.5502 32.9307Z" fill="white"/>
<path d="M101.038 22.0977V16.1354H102.433V20.0656L105.727 16.1354H107V22.0977H105.604V18.1675L102.322 22.0977H101.038ZM103.93 15.432C103.334 15.432 102.876 15.2943 102.556 15.0188C102.236 14.736 102.072 14.3266 102.065 13.7906H102.992C102.999 14.0586 103.081 14.2708 103.237 14.4271C103.401 14.5834 103.628 14.6616 103.918 14.6616C104.201 14.6616 104.425 14.5834 104.588 14.4271C104.76 14.2708 104.849 14.0586 104.856 13.7906H105.805C105.798 14.3266 105.63 14.736 105.303 15.0188C104.983 15.2943 104.525 15.432 103.93 15.432Z" fill="white"/>
<path d="M93.1979 22.0976V16.1353H94.5936V20.0655L97.8873 16.1353H99.1602V22.0976H97.7645V18.1674L94.4819 22.0976H93.1979Z" fill="white"/>
<path d="M86.2849 22.0976V16.1353H89.1991C89.9211 16.1353 90.4868 16.2693 90.8962 16.5373C91.3131 16.8052 91.5215 17.1849 91.5215 17.6761C91.5215 18.16 91.328 18.5396 90.9409 18.815C90.5538 19.083 90.0402 19.217 89.4001 19.217L89.5675 18.8708C90.2896 18.8708 90.8255 19.0048 91.1754 19.2728C91.5327 19.5333 91.7113 19.9167 91.7113 20.4228C91.7113 20.9513 91.514 21.3644 91.1195 21.6622C90.725 21.9525 90.1258 22.0976 89.3219 22.0976H86.2849ZM87.6136 21.0816H89.2102C89.5899 21.0816 89.8765 21.022 90.07 20.9029C90.2635 20.7764 90.3603 20.5866 90.3603 20.3335C90.3603 20.0655 90.271 19.8683 90.0923 19.7417C89.9137 19.6152 89.6345 19.5519 89.2549 19.5519H87.6136V21.0816ZM87.6136 18.6252H89.0763C89.4336 18.6252 89.7015 18.5619 89.8802 18.4354C90.0663 18.3014 90.1593 18.1153 90.1593 17.8771C90.1593 17.6315 90.0663 17.4491 89.8802 17.33C89.7015 17.2109 89.4336 17.1514 89.0763 17.1514H87.6136V18.6252Z" fill="white"/>
<path d="M81.7241 22.1758C81.1137 22.1758 80.5703 22.0456 80.0939 21.785C79.6175 21.5171 79.2416 21.1523 78.9662 20.6908C78.6908 20.2293 78.5531 19.7046 78.5531 19.1165C78.5531 18.521 78.6908 17.9963 78.9662 17.5422C79.2416 17.0807 79.6175 16.7197 80.0939 16.4591C80.5703 16.1986 81.1137 16.0684 81.7241 16.0684C82.3419 16.0684 82.889 16.1986 83.3654 16.4591C83.8492 16.7197 84.2251 17.077 84.4931 17.531C84.7685 17.9851 84.9062 18.5136 84.9062 19.1165C84.9062 19.7046 84.7685 20.2293 84.4931 20.6908C84.2251 21.1523 83.8492 21.5171 83.3654 21.785C82.889 22.0456 82.3419 22.1758 81.7241 22.1758ZM81.7241 20.9811C82.0665 20.9811 82.3717 20.9067 82.6396 20.7578C82.9076 20.609 83.116 20.3931 83.2649 20.1102C83.4212 19.8274 83.4994 19.4961 83.4994 19.1165C83.4994 18.7294 83.4212 18.3982 83.2649 18.1228C83.116 17.8399 82.9076 17.6241 82.6396 17.4752C82.3717 17.3263 82.0702 17.2519 81.7352 17.2519C81.3928 17.2519 81.0876 17.3263 80.8197 17.4752C80.5592 17.6241 80.3507 17.8399 80.1944 18.1228C80.0381 18.3982 79.9599 18.7294 79.9599 19.1165C79.9599 19.4961 80.0381 19.8274 80.1944 20.1102C80.3507 20.3931 80.5592 20.609 80.8197 20.7578C81.0876 20.9067 81.3891 20.9811 81.7241 20.9811Z" fill="white"/>
<path d="M75.3794 22.1758C74.7541 22.1758 74.1959 22.0456 73.7046 21.785C73.2207 21.5171 72.8411 21.1523 72.5657 20.6908C72.2903 20.2293 72.1526 19.7046 72.1526 19.1165C72.1526 18.521 72.2903 17.9963 72.5657 17.5422C72.8411 17.0807 73.2207 16.7197 73.7046 16.4591C74.1959 16.1986 74.7541 16.0684 75.3794 16.0684C75.96 16.0684 76.4699 16.1875 76.9091 16.4257C77.3557 16.6564 77.6943 16.9988 77.9251 17.4529L76.8532 18.0781C76.6746 17.7953 76.455 17.5869 76.1945 17.4529C75.9414 17.3189 75.666 17.2519 75.3682 17.2519C75.0258 17.2519 74.7169 17.3263 74.4415 17.4752C74.1661 17.6241 73.9502 17.8399 73.7939 18.1228C73.6376 18.3982 73.5594 18.7294 73.5594 19.1165C73.5594 19.5036 73.6376 19.8385 73.7939 20.1214C73.9502 20.3968 74.1661 20.609 74.4415 20.7578C74.7169 20.9067 75.0258 20.9811 75.3682 20.9811C75.666 20.9811 75.9414 20.9141 76.1945 20.7802C76.455 20.6462 76.6746 20.4378 76.8532 20.1549L77.9251 20.7802C77.6943 21.2268 77.3557 21.5729 76.9091 21.8185C76.4699 22.0567 75.96 22.1758 75.3794 22.1758Z" fill="white"/>
<path d="M65.0009 22.0976V16.1353H66.3965V18.5582H69.4V16.1353H70.7957V22.0976H69.4V19.7417H66.3965V22.0976H65.0009Z" fill="white"/>
<path d="M61.9563 22.0977V20.8918L61.8782 20.635V18.5247C61.8782 18.1154 61.7554 17.799 61.5097 17.5757C61.2641 17.3449 60.8919 17.2296 60.3932 17.2296C60.0582 17.2296 59.727 17.2817 59.3995 17.3859C59.0794 17.4901 58.8077 17.6352 58.5844 17.8213L58.0373 16.8053C58.3574 16.5596 58.737 16.3773 59.1762 16.2582C59.6228 16.1316 60.0843 16.0684 60.5607 16.0684C61.4241 16.0684 62.0903 16.2768 62.5593 16.6936C63.0357 17.103 63.2739 17.7395 63.2739 18.6029V22.0977H61.9563ZM60.0806 22.1758C59.6339 22.1758 59.2432 22.1014 58.9082 21.9525C58.5732 21.7962 58.3127 21.5841 58.1266 21.3161C57.948 21.0407 57.8586 20.7318 57.8586 20.3894C57.8586 20.0544 57.9368 19.7529 58.0931 19.485C58.2569 19.217 58.5211 19.0049 58.8859 18.8485C59.2506 18.6922 59.7344 18.6141 60.3374 18.6141H62.068V19.5408H60.4379C59.9615 19.5408 59.6414 19.619 59.4776 19.7753C59.3139 19.9241 59.232 20.1102 59.232 20.3335C59.232 20.5866 59.3325 20.7876 59.5335 20.9365C59.7344 21.0853 60.0136 21.1598 60.3709 21.1598C60.7133 21.1598 61.0185 21.0816 61.2864 20.9253C61.5618 20.769 61.7591 20.5382 61.8782 20.2331L62.1127 21.0705C61.9787 21.4203 61.7368 21.692 61.3869 21.8855C61.0445 22.0791 60.6091 22.1758 60.0806 22.1758Z" fill="white"/>
<path d="M50.6735 22.0976V16.1353H52.0691V18.5582H55.0726V16.1353H56.4683V22.0976H55.0726V19.7417H52.0691V22.0976H50.6735Z" fill="white"/>
<path d="M47.3914 22.0977V16.1353H48.787V22.0977H47.3914ZM48.0948 15.1528C47.8342 15.1528 47.6184 15.0709 47.4472 14.9071C47.2834 14.7434 47.2015 14.5461 47.2015 14.3154C47.2015 14.0772 47.2834 13.8799 47.4472 13.7236C47.6184 13.5598 47.8342 13.478 48.0948 13.478C48.3553 13.478 48.5674 13.5561 48.7312 13.7124C48.9024 13.8613 48.988 14.0511 48.988 14.2819C48.988 14.5275 48.9061 14.7359 48.7424 14.9071C48.5786 15.0709 48.3627 15.1528 48.0948 15.1528Z" fill="white"/>
<path d="M41.941 22.2094C41.9335 22.2094 41.9 22.2094 41.8405 22.2094C41.7884 22.2094 41.7363 22.2094 41.6841 22.2094C41.6395 22.2094 41.6097 22.2094 41.5948 22.2094C40.3369 22.1946 39.3617 21.9229 38.6695 21.3944C37.9772 20.8584 37.6311 20.0955 37.6311 19.1055C37.6311 18.1229 37.9772 17.3711 38.6695 16.85C39.3617 16.329 40.348 16.061 41.6283 16.0461C41.6432 16.0461 41.673 16.0461 41.7176 16.0461C41.7697 16.0461 41.8181 16.0461 41.8628 16.0461C41.9149 16.0461 41.9447 16.0461 41.9521 16.0461C43.2399 16.0461 44.241 16.3104 44.9556 16.8389C45.6776 17.3599 46.0387 18.1155 46.0387 19.1055C46.0387 20.1029 45.6776 20.8696 44.9556 21.4055C44.241 21.9415 43.2361 22.2094 41.941 22.2094ZM41.8963 21.0482C42.529 21.0482 43.05 20.9775 43.4594 20.8361C43.8688 20.6872 44.174 20.4714 44.375 20.1885C44.576 19.8982 44.6765 19.5372 44.6765 19.1055C44.6765 18.6812 44.576 18.3313 44.375 18.0559C44.174 17.773 43.8688 17.5646 43.4594 17.4306C43.05 17.2892 42.529 17.2185 41.8963 17.2185C41.8814 17.2185 41.8442 17.2185 41.7846 17.2185C41.7325 17.2185 41.699 17.2185 41.6841 17.2185C41.0663 17.2185 40.5602 17.2929 40.1657 17.4418C39.7711 17.5832 39.4771 17.7917 39.2836 18.0671C39.0975 18.3425 39.0044 18.6886 39.0044 19.1055C39.0044 19.5297 39.0975 19.8833 39.2836 20.1662C39.4771 20.449 39.7711 20.6649 40.1657 20.8138C40.5676 20.9626 41.0738 21.0408 41.6841 21.0482C41.699 21.0482 41.7325 21.0482 41.7846 21.0482C41.8442 21.0482 41.8814 21.0482 41.8963 21.0482ZM41.1705 24.2639V13.813H42.4881V24.2639H41.1705Z" fill="white"/>
<path d="M96.011 8.45111V2.48878H97.4067V6.419L100.7 2.48878H101.973V8.45111H100.578V4.52088L97.295 8.45111H96.011ZM98.9028 1.78536C98.3073 1.78536 97.8496 1.64765 97.5295 1.37224C97.2094 1.08938 97.0456 0.679982 97.0382 0.144043H97.9649C97.9724 0.412013 98.0543 0.624156 98.2106 0.780471C98.3743 0.936787 98.6014 1.01495 98.8917 1.01495C99.1745 1.01495 99.3978 0.936787 99.5616 0.780471C99.7328 0.624156 99.8221 0.412013 99.8296 0.144043H100.779C100.771 0.679982 100.604 1.08938 100.276 1.37224C99.9561 1.64765 99.4983 1.78536 98.9028 1.78536Z" fill="white"/>
<path d="M88.1713 8.4511V2.48877H89.5669V6.41899L92.8607 2.48877H94.1336V8.4511H92.7379V4.52087L89.4553 8.4511H88.1713Z" fill="white"/>
<path d="M80.506 8.4511V2.48877H81.9017V4.91166H84.9052V2.48877H86.3008V8.4511H84.9052V6.0952H81.9017V8.4511H80.506Z" fill="white"/>
<path d="M71.5104 8.4511V2.48877H72.973L75.3736 6.72046H74.793L77.3164 2.48877H78.6227L78.6339 8.4511H77.3722V3.98493L77.5955 4.13008L75.3624 7.82583H74.7595L72.5153 4.0296L72.7832 3.9626V8.4511H71.5104Z" fill="white"/>
<path d="M67.1815 8.52929C66.519 8.52929 65.9384 8.39903 65.4397 8.1385C64.9484 7.87053 64.5651 7.5058 64.2896 7.04429C64.0217 6.58279 63.8877 6.05802 63.8877 5.46997C63.8877 4.87448 64.018 4.34971 64.2785 3.89565C64.5465 3.43414 64.9112 3.07313 65.3727 2.8126C65.8416 2.55208 66.3739 2.42181 66.9693 2.42181C67.5499 2.42181 68.0673 2.54836 68.5213 2.80144C68.9754 3.05452 69.3327 3.41181 69.5932 3.87332C69.8537 4.33482 69.984 4.8782 69.984 5.50347C69.984 5.56302 69.9803 5.63001 69.9728 5.70444C69.9728 5.77888 69.9691 5.84959 69.9617 5.91659H64.9931V4.98986H69.2248L68.6777 5.28016C68.6851 4.93775 68.6144 4.63629 68.4655 4.37576C68.3166 4.11523 68.1119 3.91054 67.8514 3.76166C67.5983 3.61279 67.3043 3.53835 66.9693 3.53835C66.6269 3.53835 66.3255 3.61279 66.0649 3.76166C65.8119 3.91054 65.6109 4.11896 65.462 4.38693C65.3206 4.64745 65.2499 4.95636 65.2499 5.31365V5.53696C65.2499 5.89426 65.3318 6.21061 65.4955 6.48602C65.6593 6.76144 65.89 6.97358 66.1878 7.12245C66.4855 7.27132 66.8279 7.34576 67.215 7.34576C67.5499 7.34576 67.8514 7.29365 68.1194 7.18944C68.3874 7.08523 68.6255 6.92147 68.834 6.69817L69.5821 7.5579C69.3141 7.87053 68.9754 8.11245 68.566 8.28365C68.164 8.44741 67.7025 8.52929 67.1815 8.52929Z" fill="white"/>
<path d="M60.1668 8.4511V3.33734L60.4906 3.6723H58.0677V2.48877H63.6505V3.6723H61.2387L61.5625 3.33734V8.4511H60.1668Z" fill="white"/>
<path d="M55.1965 8.52929C54.5713 8.52929 54.013 8.39903 53.5217 8.1385C53.0379 7.87053 52.6583 7.5058 52.3828 7.04429C52.1074 6.58279 51.9697 6.05802 51.9697 5.46997C51.9697 4.87448 52.1074 4.34971 52.3828 3.89565C52.6583 3.43414 53.0379 3.07313 53.5217 2.8126C54.013 2.55208 54.5713 2.42181 55.1965 2.42181C55.7771 2.42181 56.287 2.54091 56.7262 2.77911C57.1728 3.00986 57.5115 3.35226 57.7422 3.80632L56.6704 4.43159C56.4917 4.14873 56.2721 3.94031 56.0116 3.80632C55.7585 3.67234 55.4831 3.60535 55.1854 3.60535C54.843 3.60535 54.534 3.67978 54.2586 3.82866C53.9832 3.97753 53.7674 4.19339 53.611 4.47625C53.4547 4.75166 53.3766 5.0829 53.3766 5.46997C53.3766 5.85704 53.4547 6.192 53.611 6.47486C53.7674 6.75027 53.9832 6.96241 54.2586 7.11129C54.534 7.26016 54.843 7.33459 55.1854 7.33459C55.4831 7.33459 55.7585 7.2676 56.0116 7.13362C56.2721 6.99963 56.4917 6.79121 56.6704 6.50835L57.7422 7.13362C57.5115 7.58023 57.1728 7.92636 56.7262 8.172C56.287 8.41019 55.7771 8.52929 55.1965 8.52929Z" fill="white"/>
<path d="M44.6437 8.4511V2.48877H46.0394V6.41899L49.3331 2.48877H50.606V8.4511H49.2103V4.52087L45.9277 8.4511H44.6437Z" fill="white"/>
<path d="M40.8691 8.52929C40.2439 8.52929 39.6856 8.39903 39.1943 8.1385C38.7105 7.87053 38.3309 7.5058 38.0555 7.04429C37.78 6.58279 37.6423 6.05802 37.6423 5.46997C37.6423 4.87448 37.78 4.34971 38.0555 3.89565C38.3309 3.43414 38.7105 3.07313 39.1943 2.8126C39.6856 2.55208 40.2439 2.42181 40.8691 2.42181C41.4497 2.42181 41.9596 2.54091 42.3988 2.77911C42.8454 3.00986 43.1841 3.35226 43.4149 3.80632L42.343 4.43159C42.1643 4.14873 41.9447 3.94031 41.6842 3.80632C41.4311 3.67234 41.1557 3.60535 40.858 3.60535C40.5156 3.60535 40.2067 3.67978 39.9312 3.82866C39.6558 3.97753 39.44 4.19339 39.2836 4.47625C39.1273 4.75166 39.0492 5.0829 39.0492 5.46997C39.0492 5.85704 39.1273 6.192 39.2836 6.47486C39.44 6.75027 39.6558 6.96241 39.9312 7.11129C40.2067 7.26016 40.5156 7.33459 40.858 7.33459C41.1557 7.33459 41.4311 7.2676 41.6842 7.13362C41.9447 6.99963 42.1643 6.79121 42.343 6.50835L43.4149 7.13362C43.1841 7.58023 42.8454 7.92636 42.3988 8.172C41.9596 8.41019 41.4497 8.52929 40.8691 8.52929Z" fill="white"/>
<path d="M5.84678 24.1428L11.0917 18.9305L14.531 22.3698L21.4955 15.4139V19.3467H23.2152V12.4681H16.3366V14.1878H20.2677L14.531 19.9262L11.0917 16.4869L4.66367 22.9579L5.84678 24.1428ZM2.77894 32.244C1.98676 32.244 1.32584 31.9792 0.796194 31.4495C0.266544 30.9199 0.00114643 30.2584 0 29.4651V7.50868C0 6.7165 0.265398 6.05558 0.796194 5.52593C1.32699 4.99628 1.98791 4.73088 2.77894 4.72974H24.7371C25.5281 4.72974 26.189 4.99513 26.7198 5.52593C27.2506 6.05673 27.5154 6.71764 27.5143 7.50868V29.4668C27.5143 30.2578 27.2495 30.9187 26.7198 31.4495C26.1902 31.9803 25.5287 32.2452 24.7353 32.244H2.77894Z" fill="white"/>
</svg>
